{"title":"Harry Potter and the Deathly Hallows Part 2 2011 TS x264 Feel-Fr","uid":6543126,"size":1520503817,"categoryP":"video","categoryS":"movies","magnet":"?xt=urn:btih:3b18c1c608c90de3126ce921c824aaebef69e0e7&amp;dn=Harry+Potter+and+the+Deathly+Hallows+Part+2+2011+TS+x264+Feel-Fr&amp;tr=udp%3A%2F%2Ftracker.openbittorrent.com%3A80&amp;tr=udp%3A%2F%2Fopen.demonii.com%3A1337&amp;tr=udp%3A%2F%2Ftracker.coppersurfer.tk%3A6969&amp;tr=udp%3A%2F%2Fexodus.desync.com%3A6969","seeders":2,"leechers":0,"uploader":".BONE.","files":11,"time":1310761912,"description":"\nGenre:Action | Adventure | Drama\nLanguage:English\nIMDb:http://www.imdb.com/title/tt1201607/\nSource:Garri Potter i dari smerti 2chast 2011 CAMRip/IMAGINE Thanks!\n\nFormat : MPEG-4\nFormat profile : Base Media\nCodec ID : isom\nFile size : 1.41 GiB\nDuration : 1h 56mn\nOverall bit rate : 1 733 Kbps\n\nVideo\nID : 1\nFormat : AVC\nFormat/Info : Advanced Video Codec\nFormat profile : &lt;a class=&quot;__cf_email__&quot; href=&quot;/cdn-cgi/l/email-protection&quot; data-cfemail=&quot;b9f1d0ded1f9f58d9788&quot;&gt;[email&amp;#160;protected]&lt;/a&gt;&lt;script cf-hash='f9e31' type=&quot;text/javascript&quot;&gt;\n/* &lt;![CDATA[ */!function(){try{var t=&quot;currentScript&quot;in document?document.currentScript:function(){for(var t=document.getElementsByTagName(&quot;script&quot;),e=t.length;e--;)if(t[e].getAttribute(&quot;cf-hash&quot;))return t[e]}();if(t&amp;&amp;t.previousSibling){var e,r,n,i,c=t.previousSibling,a=c.getAttribute(&quot;data-cfemail&quot;);if(a){for(e=&quot;&quot;,r=parseInt(a.substr(0,2),16),n=2;a.length-n;n+=2)i=parseInt(a.substr(n,2),16)^r,e+=String.fromCharCode(i);e=document.createTextNode(e),c.parentNode.replaceChild(e,c)}}}catch(u){}}();/* ]]&gt; */&lt;/script&gt;\nFormat settings, CABAC : Yes\nFormat settings, ReFrames : 3 frames\nCodec ID : avc1\nCodec ID/Info : Advanced Video Coding\nDuration : 1h 56mn\nBit rate mode : Variable\nBit rate : 1 500 Kbps\nMaximum bit rate : 5 536 Kbps\nWidth : 720 pixels\nHeight : 304 pixels\nDisplay aspect ratio : 2.35:1\nFrame rate mode : Constant\nFrame rate : 25.000 fps\nColor space : YUV\nChroma subsampling : 4:2:0\nBit depth : 8 bits\nScan type : Progressive\nBits/(Pixel*Frame) : 0.274\nStream size : 1.23 GiB (87%)\nWriting library : x264\n\nAudio\nID : 2\nFormat : AAC\nFormat/Info : Advanced Audio Codec\nFormat version : Version 4\nFormat profile : LC\nFormat settings, SBR : No\nCodec ID : 40\nDuration : 1h 56mn\nBit rate mode : Variable\nBit rate : 224 Kbps\nMaximum bit rate : 268 Kbps\nChannel(s) : 2 channels\nChannel positions : Front: L R\nSampling rate : 44.1 KHz\nStream size : 187 MiB (13%)\n\n\nPlot:\nThe final chapter begins as Harry, Ron, and Hermione continue their quest of finding and destroying the Dark Lord's three remaining Horcruxes..\n &lt;a href=&quot;\nhttp://www.pix2links.com/images/06360383286962419972.png&quot; rel=&quot;nofollow&quot; target=&quot;_NEW&quot;&gt;\nhttp://www.pix2links.com/images/06360383286962419972.png&lt;/a&gt;\n &lt;a href=&quot;\nhttp://www.pix2links.com/images/74224144043232658888.png&quot; rel=&quot;nofollow&quot; target=&quot;_NEW&quot;&gt;\nhttp://www.pix2links.com/images/74224144043232658888.png&lt;/a&gt;\n &lt;a href=&quot;\nhttp://www.pix2links.com/images/62897482896711483007.png&quot; rel=&quot;nofollow&quot; target=&quot;_NEW&quot;&gt;\nhttp://www.pix2links.com/images/62897482896711483007.png&lt;/a&gt;\n &lt;a href=&quot;\nhttp://www.pix2links.com/images/34916343070675333823.png&quot; rel=&quot;nofollow&quot; target=&quot;_NEW&quot;&gt;\nhttp://www.pix2links.com/images/34916343070675333823.png&lt;/a&gt;\n &lt;a href=&quot;\nhttp://www.pix2links.com/images/77270628024113215428.png&quot; rel=&quot;nofollow&quot; target=&quot;_NEW&quot;&gt;\nhttp://www.pix2links.com/images/77270628024113215428.png&lt;/a&gt;\n &lt;a href=&quot;\nhttp://www.pix2links.com/images/41486755189950065509.png&quot; rel=&quot;nofollow&quot; target=&quot;_NEW&quot;&gt;\nhttp://www.pix2links.com/images/41486755189950065509.png&lt;/a&gt;","torrent":{"xt":"urn:btih:3b18c1c608c90de3126ce921c824aaebef69e0e7","amp;dn":"Harry+Potter+and+the+Deathly+Hallows+Part+2+2011+TS+x264+Feel-Fr","amp;tr":["udp%3A%2F%2Ftracker.openbittorrent.com%3A80","udp%3A%2F%2Fopen.demonii.com%3A1337","udp%3A%2F%2Ftracker.coppersurfer.tk%3A6969","udp%3A%2F%2Fexodus.desync.com%3A6969"],"infoHash":"3b18c1c608c90de3126ce921c824aaebef69e0e7","infoHashBuffer":{"type":"Buffer","data":[59,24,193,198,8,201,13,227,18,108,233,33,200,36,170,235,239,105,224,231]},"announce":[],"urlList":[]}}